<?xml version="1.0" standalone="no"?>
<!DOCTYPE svg PUBLIC "-//W3C//DTD SVG 20010904//EN"
 "http://www.w3.org/TR/2001/REC-SVG-20010904/DTD/svg10.dtd">
<svg version="1.0" xmlns="http://www.w3.org/2000/svg"
 width="466.000000pt" height="466.000000pt" viewBox="0 0 466.000000 466.000000"
 preserveAspectRatio="xMidYMid meet">
<metadata>
Created by potrace 1.11, written by Peter Selinger 2001-2013
</metadata>
<g transform="translate(0.000000,466.000000) scale(0.100000,-0.100000)"
fill="#000000" stroke="none">
<path d="M2319 4059 c-8 -4 -34 -15 -58 -25 -81 -34 -157 -125 -176 -213 -40
-185 99 -367 287 -377 231 -11 393 228 296 436 -14 30 -41 71 -61 91 -34 35
-106 77 -144 84 -10 2 -18 4 -18 5 0 6 -115 5 -126 -1z"/>
<path d="M1484 3986 c-99 -47 -155 -135 -150 -240 10 -221 270 -323 426 -166
123 122 91 323 -64 402 -61 32 -149 33 -212 4z"/>
<path d="M3150 3997 c-29 -14 -55 -76 -46 -109 18 -68 79 -97 144 -68 30 14
43 27 52 54 14 43 6 72 -28 109 -29 30 -78 36 -122 14z"/>
<path d="M2724 3927 c-15 -8 -20 -36 -6 -38 22 -4 309 -5 320 -1 13 4 17 41 5
43 -38 6 -308 2 -319 -4z"/>
<path d="M3087 3762 c-10 -10 -17 -21 -17 -24 0 -4 -29 -54 -65 -113 -36 -59
-65 -109 -65 -110 0 -2 -31 -56 -70 -121 -38 -65 -70 -121 -70 -125 0 -3 6
-12 13 -18 11 -8 18 -7 30 7 34 38 298 495 293 508 -7 19 -30 17 -49 -4z"/>
<path d="M3274 3766 c-3 -9 3 -30 14 -48 11 -18 29 -49 40 -68 120 -214 237
-400 252 -400 10 0 20 6 23 13 2 7 -31 73 -75 147 -44 74 -90 153 -103 175
-21 37 -58 99 -96 163 -18 31 -46 40 -55 18z"/>
<path d="M1035 3464 c-81 -17 -132 -44 -197 -103 -155 -142 -181 -379 -59
-555 76 -108 212 -176 350 -176 73 0 177 32 233 71 107 75 176 200 183 331 15
275 -240 490 -510 432z"/>
<path d="M2553 3433 c-7 -3 -13 -10 -13 -15 0 -22 92 -168 106 -168 22 0 29
30 14 54 -7 11 -25 43 -40 70 -28 51 -46 66 -67 59z"/>
<path d="M1870 3376 c-93 -24 -164 -87 -206 -181 -67 -152 6 -332 163 -401 49
-22 69 -25 133 -22 181 8 305 145 296 326 -6 128 -88 230 -221 277 -36 13
-119 13 -165 1z"/>
<path d="M2735 3225 c-5 -2 -23 -6 -38 -9 -34 -8 -67 -59 -67 -103 0 -22 9
-41 31 -62 44 -45 98 -45 142 -2 51 50 41 124 -21 158 -20 11 -41 19 -47 18z"/>
<path d="M3629 3216 c-80 -40 -81 -157 -2 -189 45 -18 76 -12 113 23 58 54 28
151 -52 169 -24 6 -45 5 -59 -3z"/>
<path d="M2313 3132 c-27 -28 3 -36 127 -37 130 -2 152 4 134 32 -10 16 -27
18 -129 19 -90 0 -121 -3 -132 -14z"/>
<path d="M2901 3138 c-19 -7 -21 -36 -2 -39 3 -1 138 -2 300 -3 244 -2 296 0
308 12 32 33 -1 37 -297 38 -158 0 -298 -3 -309 -8z"/>
<path d="M2810 2985 c-10 -12 17 -64 137 -267 89 -150 156 -254 166 -256 40
-8 24 33 -74 200 -56 95 -122 208 -147 250 -49 82 -63 95 -82 73z"/>
<path d="M2544 2843 c-48 -82 -89 -152 -91 -156 -7 -13 17 -36 32 -31 21 8
188 302 181 319 -13 35 -39 7 -122 -132z"/>
<path d="M3519 2913 c-25 -43 -92 -156 -148 -251 -60 -101 -100 -180 -97 -188
11 -30 40 -8 81 61 209 348 254 430 243 442 -20 24 -34 13 -79 -64z"/>
<path d="M3737 2976 c-3 -8 20 -57 52 -109 32 -52 61 -101 64 -108 3 -8 44
-77 89 -154 63 -104 90 -141 106 -143 15 -2 22 2 22 14 0 9 -66 129 -147 265
-143 242 -170 277 -186 235z"/>
<path d="M1461 2616 c-67 -29 -131 -90 -163 -153 -34 -70 -33 -198 2 -267 33
-64 85 -117 146 -146 69 -34 188 -34 259 -2 236 108 243 441 10 559 -72 37
-179 41 -254 9z"/>
<path d="M2222 2625 c-172 -54 -264 -255 -190 -417 54 -118 148 -181 272 -185
177 -4 314 122 321 297 8 209 -202 368 -403 305z"/>
<path d="M828 2585 c-1 -2 -17 -5 -34 -8 -76 -12 -149 -70 -183 -147 -31 -72
-33 -113 -10 -176 27 -72 71 -121 134 -150 165 -77 356 42 357 223 1 123 -86
232 -199 248 -21 3 -43 8 -50 10 -6 2 -13 2 -15 0z"/>
<path d="M4110 2426 c-92 -30 -97 -153 -8 -191 65 -27 138 23 138 94 0 72 -63
119 -130 97z"/>
<path d="M3136 2405 c-86 -86 6 -215 117 -164 48 22 70 93 41 137 -27 41 -45
51 -91 52 -32 0 -48 -6 -67 -25z"/>
<path d="M2685 2346 c-10 -7 -12 -16 -5 -26 7 -12 41 -14 181 -15 151 0 173 2
183 17 5 9 7 20 3 25 -13 12 -345 12 -362 -1z"/>
<path d="M3373 2353 c-7 -3 -13 -13 -13 -24 0 -10 6 -20 13 -20 6 -1 142 -2
301 -3 297 -1 340 4 308 36 -10 10 -78 13 -305 14 -161 0 -298 -1 -304 -3z"/>
<path d="M3280 2195 c-16 -19 -24 -3 145 -289 115 -194 144 -236 160 -234 14
2 19 9 17 23 -4 24 -277 489 -296 504 -10 8 -17 7 -26 -4z"/>
<path d="M4026 2188 c-76 -118 -286 -486 -284 -498 2 -8 11 -16 20 -18 11 -2
37 33 89 120 41 68 76 128 78 133 2 6 14 26 26 45 12 19 45 74 73 122 49 83
50 87 32 103 -17 16 -19 15 -34 -7z"/>
<path d="M3093 2188 c-11 -14 -200 -335 -241 -408 -13 -25 -31 -52 -39 -61
-16 -20 -7 -49 16 -49 21 0 315 495 307 516 -7 17 -30 18 -43 2z"/>
<path d="M1017 2019 c-89 -21 -194 -98 -247 -180 -188 -291 34 -672 380 -652
216 12 387 189 395 408 8 238 -177 431 -415 433 -41 0 -92 -4 -113 -9z"/>
<path d="M2459 1994 c-14 -17 -19 -7 89 -189 74 -124 105 -156 118 -122 6 16
-163 313 -183 321 -6 3 -17 -2 -24 -10z"/>
<path d="M1900 1830 c-204 -37 -273 -302 -113 -439 153 -130 392 -33 410 167
16 170 -129 303 -297 272z"/>
<path d="M2725 1643 c-38 -7 -64 -26 -79 -57 -21 -45 -14 -85 23 -118 76 -68
191 0 166 100 -11 46 -65 83 -110 75z"/>
<path d="M3632 1634 c-40 -16 -62 -51 -62 -96 0 -105 146 -135 193 -40 42 81
-46 172 -131 136z"/>
<path d="M2263 1563 c-7 -3 -13 -13 -13 -23 0 -25 8 -26 160 -24 183 2 172 0
168 27 -3 22 -5 22 -153 23 -82 0 -156 -1 -162 -3z"/>
<path d="M2898 1559 c-10 -6 -10 -13 -2 -26 10 -17 34 -18 308 -18 232 0 300
3 308 13 28 33 -7 37 -307 38 -162 0 -300 -3 -307 -7z"/>
<path d="M2586 1331 c-28 -48 -44 -85 -40 -95 13 -33 31 -18 83 67 45 74 52
107 22 107 -13 0 -33 -24 -65 -79z"/>
<path d="M2804 1396 c-5 -13 30 -75 245 -438 44 -75 72 -96 84 -65 7 19 -285
511 -306 515 -9 2 -20 -3 -23 -12z"/>
<path d="M3417 1159 c-81 -139 -146 -258 -143 -265 9 -23 42 -15 57 13 8 15
74 129 147 252 73 124 131 230 129 236 -2 5 -12 11 -23 13 -15 2 -48 -47 -167
-249z"/>
<path d="M2310 1206 c-261 -69 -315 -407 -90 -558 84 -56 169 -67 262 -34 86
30 142 79 180 155 28 56 32 74 32 140 -1 56 -6 88 -22 121 -68 141 -219 215
-362 176z"/>
<path d="M1545 1154 c-90 -22 -150 -66 -188 -138 -30 -57 -29 -164 0 -222 43
-81 136 -139 230 -143 57 -2 139 36 183 86 137 156 42 400 -164 418 -22 2 -50
1 -61 -1z"/>
<path d="M3146 834 c-26 -18 -36 -33 -41 -63 -16 -97 88 -159 163 -96 100 84
-15 232 -122 159z"/>
<path d="M2722 772 c-20 -6 -13 -32 11 -40 27 -10 289 -8 305 2 13 8 16 35 5
38 -19 3 -310 4 -321 0z"/>
</g>
</svg>
